<svg xmlns="http://www.w3.org/2000/svg" width="108.3" height="108.3" viewBox="0 0 108.3 108.3"><title>2001.m10.i010.n003_8</title><g id="Layer_2" data-name="Layer 2"><g id="_"><circle cx="30.3" cy="0.3" r="0.1"/><circle cx="36.3" cy="0.3" r="0.2"/><circle cx="42.3" cy="0.3" r="0.3"/><circle cx="48.3" cy="0.3" r="0.3"/><circle cx="54.3" cy="0.3" r="0.3"/><circle cx="60.3" cy="0.3" r="0.3"/><circle cx="66.3" cy="0.3" r="0.2"/><circle cx="72.3" cy="0.3" r="0.1"/><circle cx="18.3" cy="6.3"/><circle cx="24.3" cy="6.3" r="0.2"/><circle cx="30.3" cy="6.3" r="0.3"/><circle cx="36.3" cy="6.3" r="0.4"/><circle cx="42.3" cy="6.3" r="0.5"/><circle cx="48.3" cy="6.3" r="0.6"/><circle cx="54.3" cy="6.3" r="0.6"/><circle cx="60.3" cy="6.3" r="0.5"/><circle cx="66.3" cy="6.3" r="0.5"/><circle cx="72.3" cy="6.3" r="0.4"/><circle cx="78.3" cy="6.3" r="0.2"/><circle cx="84.3" cy="6.3" r="0.1"/><circle cx="12.3" cy="12.3" r="0.1"/><circle cx="18.3" cy="12.3" r="0.3"/><circle cx="24.3" cy="12.3" r="0.4"/><circle cx="30.3" cy="12.3" r="0.6"/><circle cx="36.3" cy="12.3" r="0.7"/><circle cx="42.3" cy="12.3" r="0.8"/><circle cx="48.3" cy="12.3" r="0.8"/><circle cx="54.3" cy="12.3" r="0.8"/><circle cx="60.3" cy="12.3" r="0.8"/><circle cx="66.3" cy="12.3" r="0.7"/><circle cx="72.3" cy="12.3" r="0.6"/><circle cx="78.3" cy="12.3" r="0.5"/><circle cx="84.3" cy="12.3" r="0.3"/><circle cx="90.3" cy="12.3" r="0.1"/><circle cx="6.3" cy="18.3"/><circle cx="12.3" cy="18.3" r="0.3"/><circle cx="18.3" cy="18.3" r="0.5"/><circle cx="24.3" cy="18.3" r="0.7"/><circle cx="30.3" cy="18.3" r="0.8"/><circle cx="36.3" cy="18.3" r="1"/><circle cx="42.3" cy="18.3" r="1.1"/><circle cx="48.3" cy="18.3" r="1.1"/><circle cx="54.3" cy="18.3" r="1.1"/><circle cx="60.3" cy="18.3" r="1.1"/><circle cx="66.3" cy="18.3" r="1"/><circle cx="72.3" cy="18.3" r="0.9"/><circle cx="78.3" cy="18.3" r="0.7"/><circle cx="84.3" cy="18.3" r="0.5"/><circle cx="90.3" cy="18.3" r="0.3"/><circle cx="96.3" cy="18.3" r="0.1"/><circle cx="6.3" cy="24.3" r="0.2"/><circle cx="12.3" cy="24.3" r="0.4"/><circle cx="18.3" cy="24.3" r="0.7"/><circle cx="24.3" cy="24.3" r="0.9"/><circle cx="30.3" cy="24.3" r="1.1"/><circle cx="36.3" cy="24.3" r="1.2"/><circle cx="42.3" cy="24.3" r="1.3"/><circle cx="48.3" cy="24.3" r="1.4"/><circle cx="54.3" cy="24.3" r="1.4"/><circle cx="60.3" cy="24.3" r="1.4"/><circle cx="66.3" cy="24.3" r="1.3"/><circle cx="72.3" cy="24.3" r="1.1"/><circle cx="78.3" cy="24.3" r="0.9"/><circle cx="84.3" cy="24.3" r="0.7"/><circle cx="90.3" cy="24.3" r="0.5"/><circle cx="96.3" cy="24.3" r="0.3"/><circle cx="0.3" cy="30.3" r="0.1"/><circle cx="6.3" cy="30.3" r="0.3"/><circle cx="12.3" cy="30.3" r="0.6"/><circle cx="18.3" cy="30.3" r="0.8"/><circle cx="24.3" cy="30.3" r="1.1"/><circle cx="30.3" cy="30.3" r="1.3"/><circle cx="36.3" cy="30.3" r="1.4"/><circle cx="42.3" cy="30.3" r="1.6"/><circle cx="48.3" cy="30.3" r="1.7"/><circle cx="54.3" cy="30.3" r="1.7"/><circle cx="60.3" cy="30.3" r="1.6"/><circle cx="66.3" cy="30.3" r="1.5"/><circle cx="72.3" cy="30.3" r="1.3"/><circle cx="78.3" cy="30.3" r="1.1"/><circle cx="84.3" cy="30.3" r="0.9"/><circle cx="90.3" cy="30.3" r="0.6"/><circle cx="96.3" cy="30.3" r="0.4"/><circle cx="102.3" cy="30.3" r="0.1"/><circle cx="0.3" cy="36.3" r="0.2"/><circle cx="6.3" cy="36.3" r="0.4"/><circle cx="12.3" cy="36.3" r="0.7"/><circle cx="18.3" cy="36.3" r="1"/><circle cx="24.3" cy="36.3" r="1.2"/><circle cx="30.3" cy="36.3" r="1.4"/><circle cx="36.3" cy="36.3" r="1.7"/><circle cx="42.3" cy="36.3" r="1.8"/><circle cx="48.3" cy="36.3" r="1.9"/><circle cx="54.3" cy="36.3" r="1.9"/><circle cx="60.3" cy="36.3" r="1.8"/><circle cx="66.3" cy="36.3" r="1.7"/><circle cx="72.3" cy="36.3" r="1.5"/><circle cx="78.3" cy="36.3" r="1.3"/><circle cx="84.3" cy="36.3" r="1"/><circle cx="90.3" cy="36.3" r="0.8"/><circle cx="96.3" cy="36.3" r="0.5"/><circle cx="102.3" cy="36.3" r="0.2"/><circle cx="0.3" cy="42.3" r="0.3"/><circle cx="6.3" cy="42.3" r="0.5"/><circle cx="12.3" cy="42.3" r="0.8"/><circle cx="18.3" cy="42.3" r="1.1"/><circle cx="24.3" cy="42.3" r="1.3"/><circle cx="30.3" cy="42.3" r="1.6"/><circle cx="36.3" cy="42.3" r="1.8"/><circle cx="42.3" cy="42.3" r="2"/><circle cx="48.3" cy="42.3" r="2.2"/><circle cx="54.3" cy="42.3" r="2.2"/><circle cx="60.3" cy="42.3" r="2.1"/><circle cx="66.3" cy="42.3" r="1.9"/><circle cx="72.3" cy="42.3" r="1.6"/><circle cx="78.3" cy="42.3" r="1.4"/><circle cx="84.3" cy="42.3" r="1.1"/><circle cx="90.3" cy="42.3" r="0.9"/><circle cx="96.3" cy="42.3" r="0.6"/><circle cx="102.3" cy="42.3" r="0.3"/><circle cx="0.3" cy="48.3" r="0.3"/><circle cx="6.3" cy="48.3" r="0.6"/><circle cx="12.3" cy="48.3" r="0.8"/><circle cx="18.3" cy="48.3" r="1.1"/><circle cx="24.3" cy="48.3" r="1.4"/><circle cx="30.3" cy="48.3" r="1.7"/><circle cx="36.3" cy="48.3" r="1.9"/><circle cx="42.3" cy="48.3" r="2.2"/><circle cx="48.3" cy="48.3" r="2.4"/><circle cx="54.3" cy="48.3" r="2.4"/><circle cx="60.3" cy="48.3" r="2.2"/><circle cx="66.3" cy="48.3" r="2"/><circle cx="72.3" cy="48.3" r="1.7"/><circle cx="78.3" cy="48.3" r="1.5"/><circle cx="84.3" cy="48.3" r="1.2"/><circle cx="90.3" cy="48.3" r="0.9"/><circle cx="96.3" cy="48.3" r="0.6"/><circle cx="102.3" cy="48.3" r="0.3"/><circle cx="108.3" cy="48.3" r="0.1"/><circle cx="0.3" cy="54.3" r="0.3"/><circle cx="6.3" cy="54.3" r="0.6"/><circle cx="12.3" cy="54.3" r="0.8"/><circle cx="18.3" cy="54.3" r="1.1"/><circle cx="24.3" cy="54.3" r="1.4"/><circle cx="30.3" cy="54.3" r="1.7"/><circle cx="36.3" cy="54.3" r="1.9"/><circle cx="42.3" cy="54.3" r="2.2"/><circle cx="48.3" cy="54.3" r="2.4"/><circle cx="54.3" cy="54.3" r="2.4"/><circle cx="60.3" cy="54.3" r="2.2"/><circle cx="66.3" cy="54.3" r="2"/><circle cx="72.3" cy="54.3" r="1.7"/><circle cx="78.3" cy="54.3" r="1.5"/><circle cx="84.3" cy="54.3" r="1.2"/><circle cx="90.3" cy="54.3" r="0.9"/><circle cx="96.3" cy="54.3" r="0.6"/><circle cx="102.3" cy="54.3" r="0.3"/><circle cx="108.3" cy="54.3" r="0.1"/><circle cx="0.3" cy="60.3" r="0.3"/><circle cx="6.3" cy="60.3" r="0.5"/><circle cx="12.3" cy="60.3" r="0.8"/><circle cx="18.3" cy="60.3" r="1.1"/><circle cx="24.3" cy="60.3" r="1.4"/><circle cx="30.3" cy="60.3" r="1.6"/><circle cx="36.3" cy="60.3" r="1.8"/><circle cx="42.3" cy="60.3" r="2.1"/><circle cx="48.3" cy="60.3" r="2.2"/><circle cx="54.3" cy="60.3" r="2.2"/><circle cx="60.3" cy="60.3" r="2.1"/><circle cx="66.3" cy="60.3" r="1.9"/><circle cx="72.3" cy="60.3" r="1.7"/><circle cx="78.3" cy="60.3" r="1.4"/><circle cx="84.3" cy="60.3" r="1.2"/><circle cx="90.3" cy="60.3" r="0.9"/><circle cx="96.3" cy="60.3" r="0.6"/><circle cx="102.3" cy="60.3" r="0.3"/><circle cx="108.3" cy="60.3"/><circle cx="0.3" cy="66.3" r="0.2"/><circle cx="6.3" cy="66.3" r="0.5"/><circle cx="12.3" cy="66.3" r="0.7"/><circle cx="18.3" cy="66.3" r="1"/><circle cx="24.3" cy="66.3" r="1.3"/><circle cx="30.3" cy="66.3" r="1.5"/><circle cx="36.3" cy="66.3" r="1.7"/><circle cx="42.3" cy="66.3" r="1.9"/><circle cx="48.3" cy="66.3" r="2"/><circle cx="54.3" cy="66.3" r="2"/><circle cx="60.3" cy="66.3" r="1.9"/><circle cx="66.3" cy="66.3" r="1.7"/><circle cx="72.3" cy="66.3" r="1.5"/><circle cx="78.3" cy="66.3" r="1.3"/><circle cx="84.3" cy="66.3" r="1.1"/><circle cx="90.3" cy="66.3" r="0.8"/><circle cx="96.3" cy="66.3" r="0.5"/><circle cx="102.3" cy="66.3" r="0.3"/><circle cx="0.3" cy="72.3" r="0.1"/><circle cx="6.3" cy="72.3" r="0.4"/><circle cx="12.3" cy="72.3" r="0.6"/><circle cx="18.3" cy="72.3" r="0.9"/><circle cx="24.3" cy="72.3" r="1.1"/><circle cx="30.3" cy="72.3" r="1.3"/><circle cx="36.3" cy="72.3" r="1.5"/><circle cx="42.3" cy="72.3" r="1.6"/><circle cx="48.3" cy="72.3" r="1.7"/><circle cx="54.3" cy="72.3" r="1.7"/><circle cx="60.3" cy="72.3" r="1.7"/><circle cx="66.3" cy="72.3" r="1.5"/><circle cx="72.3" cy="72.3" r="1.4"/><circle cx="78.3" cy="72.3" r="1.2"/><circle cx="84.3" cy="72.3" r="0.9"/><circle cx="90.3" cy="72.3" r="0.7"/><circle cx="96.3" cy="72.3" r="0.4"/><circle cx="102.3" cy="72.3" r="0.2"/><circle cx="6.3" cy="78.3" r="0.2"/><circle cx="12.3" cy="78.3" r="0.5"/><circle cx="18.3" cy="78.3" r="0.7"/><circle cx="24.3" cy="78.3" r="0.9"/><circle cx="30.3" cy="78.3" r="1.1"/><circle cx="36.3" cy="78.3" r="1.3"/><circle cx="42.3" cy="78.3" r="1.4"/><circle cx="48.3" cy="78.3" r="1.5"/><circle cx="54.3" cy="78.3" r="1.5"/><circle cx="60.3" cy="78.3" r="1.4"/><circle cx="66.3" cy="78.3" r="1.3"/><circle cx="72.3" cy="78.3" r="1.2"/><circle cx="78.3" cy="78.3" r="1"/><circle cx="84.3" cy="78.3" r="0.8"/><circle cx="90.3" cy="78.3" r="0.5"/><circle cx="96.3" cy="78.3" r="0.3"/><circle cx="102.3" cy="78.3"/><circle cx="6.3" cy="84.3" r="0.1"/><circle cx="12.3" cy="84.3" r="0.3"/><circle cx="18.3" cy="84.3" r="0.5"/><circle cx="24.3" cy="84.3" r="0.7"/><circle cx="30.3" cy="84.3" r="0.9"/><circle cx="36.3" cy="84.3" r="1"/><circle cx="42.3" cy="84.3" r="1.1"/><circle cx="48.3" cy="84.3" r="1.2"/><circle cx="54.3" cy="84.3" r="1.2"/><circle cx="60.3" cy="84.3" r="1.2"/><circle cx="66.3" cy="84.3" r="1.1"/><circle cx="72.3" cy="84.3" r="0.9"/><circle cx="78.3" cy="84.3" r="0.8"/><circle cx="84.3" cy="84.3" r="0.6"/><circle cx="90.3" cy="84.3" r="0.4"/><circle cx="96.3" cy="84.3" r="0.1"/><circle cx="12.3" cy="90.3" r="0.1"/><circle cx="18.3" cy="90.3" r="0.3"/><circle cx="24.3" cy="90.3" r="0.5"/><circle cx="30.3" cy="90.3" r="0.6"/><circle cx="36.3" cy="90.3" r="0.8"/><circle cx="42.3" cy="90.3" r="0.9"/><circle cx="48.3" cy="90.3" r="0.9"/><circle cx="54.3" cy="90.3" r="0.9"/><circle cx="60.3" cy="90.3" r="0.9"/><circle cx="66.3" cy="90.3" r="0.8"/><circle cx="72.3" cy="90.3" r="0.7"/><circle cx="78.3" cy="90.3" r="0.5"/><circle cx="84.3" cy="90.3" r="0.4"/><circle cx="90.3" cy="90.3" r="0.2"/><circle cx="18.3" cy="96.3" r="0.1"/><circle cx="24.3" cy="96.3" r="0.3"/><circle cx="30.3" cy="96.3" r="0.4"/><circle cx="36.3" cy="96.3" r="0.5"/><circle cx="42.3" cy="96.3" r="0.6"/><circle cx="48.3" cy="96.3" r="0.6"/><circle cx="54.3" cy="96.3" r="0.6"/><circle cx="60.3" cy="96.3" r="0.6"/><circle cx="66.3" cy="96.3" r="0.5"/><circle cx="72.3" cy="96.3" r="0.4"/><circle cx="78.3" cy="96.3" r="0.3"/><circle cx="84.3" cy="96.3" r="0.1"/><circle cx="30.3" cy="102.3" r="0.1"/><circle cx="36.3" cy="102.3" r="0.2"/><circle cx="42.3" cy="102.3" r="0.3"/><circle cx="48.3" cy="102.3" r="0.3"/><circle cx="54.3" cy="102.3" r="0.3"/><circle cx="60.3" cy="102.3" r="0.3"/><circle cx="66.3" cy="102.3" r="0.3"/><circle cx="72.3" cy="102.3" r="0.2"/><circle cx="78.3" cy="102.3"/><circle cx="48.3" cy="108.3" r="0.1"/><circle cx="54.3" cy="108.3" r="0.1"/><circle cx="60.3" cy="108.3"/></g></g></svg>